<svg xmlns="http://www.w3.org/2000/svg" id="wave-svg" width="100%" height="100%" class="transition duration-300 ease-in-out delay-150" viewBox="0 0 1440 700"><defs><linearGradient id="gradient"><stop offset="5%" stop-color="#002bdc88"/><stop offset="95%" stop-color="#32ded488"/></linearGradient></defs><path fill="url(#gradient)" stroke="none" stroke-width="0" d="M 0,700 C 0,700 0,233 0,233 C 118.23923444976077,198.98086124401914 236.47846889952154,164.96172248803828 338,146 C 439.52153110047846,127.03827751196172 524.3253588516747,123.13397129186606 613,166 C 701.6746411483253,208.86602870813394 794.2200956937801,298.50239234449765 897,299 C 999.7799043062199,299.49760765550235 1112.7942583732056,210.85645933014354 1205,185 C 1297.2057416267944,159.14354066985646 1368.6028708133972,196.07177033492823 1440,233 C 1440,233 1440,700 1440,700 Z" class="transition-all duration-300 ease-in-out delay-150"/><defs><linearGradient id="gradient"><stop offset="5%" stop-color="#002bdcff"/><stop offset="95%" stop-color="#32ded4ff"/></linearGradient></defs><path fill="url(#gradient)" stroke="none" stroke-width="0" d="M 0,700 C 0,700 0,466 0,466 C 116.02870813397129,433.61722488038276 232.05741626794259,401.23444976076553 318,402 C 403.9425837320574,402.76555023923447 459.799043062201,436.67942583732054 541,439 C 622.200956937799,441.32057416267946 728.7464114832536,412.0478468899521 830,424 C 931.2535885167464,435.9521531100479 1027.2153110047846,489.12918660287085 1128,503 C 1228.7846889952154,516.8708133971292 1334.3923444976076,491.4354066985646 1440,466 C 1440,466 1440,700 1440,700 Z" class="transition-all duration-300 ease-in-out delay-150"/></svg>